<svg width="16" height="16" viewBox="0 0 16 16" fill="none" xmlns="http://www.w3.org/2000/svg">
<path id="Vector" d="M8.46281 13.3374C8.17284 13.1861 7.82716 13.1861 7.53719 13.3374L4.22982 15.0642C3.49578 15.4474 2.64065 14.8235 2.78161 14.0075L3.41 10.3699C3.46631 10.0439 3.35778 9.71119 3.12009 9.48112L0.464325 6.91044C-0.132733 6.33251 0.194656 5.32075 1.0171 5.20215L4.69943 4.67114C5.0246 4.62425 5.30599 4.42064 5.4522 4.12644L7.1045 0.801847C7.47223 0.0619228 8.52777 0.0619223 8.8955 0.801846L10.5478 4.12644C10.694 4.42064 10.9754 4.62425 11.3006 4.67114L14.9829 5.20215C15.8053 5.32075 16.1327 6.33251 15.5357 6.91044L12.8799 9.48112C12.6422 9.71119 12.5337 10.0439 12.59 10.3699L13.2184 14.0075C13.3594 14.8235 12.5042 15.4474 11.7702 15.0642L8.46281 13.3374Z" fill="#FFCC00"/>
</svg>
