<svg width="142" height="20" viewBox="0 0 142 20" fill="none" xmlns="http://www.w3.org/2000/svg">
<path d="M11.449 16.809C11.1665 16.667 10.8335 16.667 10.551 16.809L5.98777 19.1022C5.25157 19.4722 4.40892 18.843 4.55446 18.032L5.40369 13.3C5.46373 12.9655 5.34976 12.6234 5.10111 12.3917L1.53812 9.07196C0.921884 8.4978 1.24806 7.46561 2.08232 7.34981L7.08733 6.65509C7.40921 6.61041 7.68931 6.41211 7.83839 6.12336L10.1114 1.72094C10.484 0.999306 11.516 0.999305 11.8886 1.72094L14.1616 6.12336C14.3107 6.41211 14.5908 6.61041 14.9127 6.65509L19.9177 7.34981C20.7519 7.46561 21.0781 8.4978 20.4619 9.07196L16.8989 12.3917C16.6502 12.6234 16.5363 12.9655 16.5963 13.3L17.4455 18.032C17.5911 18.843 16.7484 19.4722 16.0122 19.1022L11.449 16.809Z" fill="#FFCC00"/>
<path d="M41.449 16.809C41.1665 16.667 40.8335 16.667 40.551 16.809L35.9878 19.1022C35.2516 19.4722 34.4089 18.843 34.5545 18.032L35.4037 13.3C35.4637 12.9655 35.3498 12.6234 35.1011 12.3917L31.5381 9.07196C30.9219 8.4978 31.2481 7.46561 32.0823 7.34981L37.0873 6.65509C37.4092 6.61041 37.6893 6.41211 37.8384 6.12336L40.1114 1.72094C40.484 0.999306 41.516 0.999305 41.8886 1.72094L44.1616 6.12336C44.3107 6.41211 44.5908 6.61041 44.9127 6.65509L49.9177 7.34981C50.7519 7.46561 51.0781 8.4978 50.4619 9.07196L46.8989 12.3917C46.6502 12.6234 46.5363 12.9655 46.5963 13.3L47.4455 18.032C47.5911 18.843 46.7484 19.4722 46.0122 19.1022L41.449 16.809Z" fill="#FFCC00"/>
<path d="M71.449 16.809C71.1665 16.667 70.8335 16.667 70.551 16.809L65.9878 19.1022C65.2516 19.4722 64.4089 18.843 64.5545 18.032L65.4037 13.3C65.4637 12.9655 65.3498 12.6234 65.1011 12.3917L61.5381 9.07196C60.9219 8.4978 61.2481 7.46561 62.0823 7.34981L67.0873 6.65509C67.4092 6.61041 67.6893 6.41211 67.8384 6.12336L70.1114 1.72094C70.484 0.999306 71.516 0.999305 71.8886 1.72094L74.1616 6.12336C74.3107 6.41211 74.5908 6.61041 74.9127 6.65509L79.9177 7.34981C80.7519 7.46561 81.0781 8.4978 80.4619 9.07196L76.8989 12.3917C76.6502 12.6234 76.5363 12.9655 76.5963 13.3L77.4455 18.032C77.5911 18.843 76.7484 19.4722 76.0122 19.1022L71.449 16.809Z" fill="#FFCC00"/>
<path d="M101.449 16.809C101.167 16.667 100.833 16.667 100.551 16.809L95.9878 19.1022C95.2516 19.4722 94.4089 18.843 94.5545 18.032L95.4037 13.3C95.4637 12.9655 95.3498 12.6234 95.1011 12.3917L91.5381 9.07196C90.9219 8.4978 91.2481 7.46561 92.0823 7.34981L97.0873 6.65509C97.4092 6.61041 97.6893 6.41211 97.8384 6.12336L100.111 1.72094C100.484 0.999306 101.516 0.999305 101.889 1.72094L104.162 6.12336C104.311 6.41211 104.591 6.61041 104.913 6.65509L109.918 7.34981C110.752 7.46561 111.078 8.4978 110.462 9.07196L106.899 12.3917C106.65 12.6234 106.536 12.9655 106.596 13.3L107.446 18.032C107.591 18.843 106.748 19.4722 106.012 19.1022L101.449 16.809Z" fill="#FFCC00"/>
<path d="M131.449 16.809C131.167 16.667 130.833 16.667 130.551 16.809L125.988 19.1022C125.252 19.4722 124.409 18.843 124.554 18.032L125.404 13.3C125.464 12.9655 125.35 12.6234 125.101 12.3917L121.538 9.07196C120.922 8.4978 121.248 7.46561 122.082 7.34981L127.087 6.65509C127.409 6.61041 127.689 6.41211 127.838 6.12336L130.111 1.72094C130.484 0.999306 131.516 0.999305 131.889 1.72094L134.162 6.12336C134.311 6.41211 134.591 6.61041 134.913 6.65509L139.918 7.34981C140.752 7.46561 141.078 8.4978 140.462 9.07196L136.899 12.3917C136.65 12.6234 136.536 12.9655 136.596 13.3L137.446 18.032C137.591 18.843 136.748 19.4722 136.012 19.1022L131.449 16.809Z" fill="#FFCC00"/>
</svg>
