<svg width="24" height="24" viewBox="-10.5 -4 24 24" fill="none" xmlns="http://www.w3.org/2000/svg">
<path d="M0.972024 10.972L0.630024 2.327V0.749999H2.16902V2.327L1.80802 10.972H0.972024ZM1.39002 15.171C1.17469 15.171 0.978357 15.095 0.801023 14.943C0.62369 14.7783 0.535024 14.563 0.535024 14.297C0.535024 14.031 0.62369 13.8157 0.801023 13.651C0.978357 13.499 1.17469 13.423 1.39002 13.423C1.63069 13.423 1.83336 13.499 1.99802 13.651C2.16269 13.8157 2.24502 14.031 2.24502 14.297C2.24502 14.563 2.16269 14.7783 1.99802 14.943C1.83336 15.095 1.63069 15.171 1.39002 15.171Z" fill="#960F19"/>
</svg>
