<svg width="20" height="23" viewBox="0 0 20 23" fill="none" xmlns="http://www.w3.org/2000/svg">
<path id="Vector (Stroke)" fill-rule="evenodd" clip-rule="evenodd" d="M10 2C5.58278 2 2 5.58275 2 9.99996C2 13.3989 3.69865 16.1594 5.64461 18.1054C6.61432 19.0751 7.62509 19.8207 8.46893 20.3183C8.89118 20.5673 9.25986 20.7473 9.54996 20.8619C9.83613 20.9749 9.97629 20.9963 9.99741 20.9995C9.99986 20.9999 10.0007 21 10 21C9.99929 21 10.0001 20.9999 10.0026 20.9995C10.0237 20.9963 10.1639 20.9749 10.45 20.8619C10.7401 20.7473 11.1088 20.5673 11.5311 20.3183C12.3749 19.8207 13.3857 19.0751 14.3554 18.1054C16.3013 16.1594 18 13.3989 18 9.99996C18 5.58275 14.4172 2 10 2ZM0 9.99996C0 4.47817 4.47822 0 10 0C15.5218 0 20 4.47817 20 9.99996C20 14.101 17.9487 17.3405 15.7696 19.5196C14.6768 20.6124 13.5313 21.4606 12.5471 22.041C12.0552 22.3311 11.5919 22.5613 11.1847 22.7221C10.8068 22.8713 10.3818 23 10 23C9.61815 23 9.19317 22.8713 8.81527 22.7221C8.40811 22.5613 7.94476 22.3311 7.45295 22.041C6.46867 21.4606 5.32318 20.6124 4.23039 19.5196C2.05135 17.3405 0 14.101 0 9.99996ZM6 9.99996C6 7.79167 7.79172 5.99997 10 5.99997C12.2083 5.99997 14 7.79167 14 9.99996C14 12.2082 12.2083 14 10 14C7.7917 14 6 12.2082 6 9.99996ZM10 7.99997C8.89628 7.99997 8 8.89625 8 9.99996C8 11.1037 8.8963 12 10 12C11.1037 12 12 11.1037 12 9.99996C12 8.89625 11.1037 7.99997 10 7.99997Z" fill="#7DB546"/>
</svg>
