<svg width="18" height="18" viewBox="0 0 18 18" fill="none" xmlns="http://www.w3.org/2000/svg">
<path id="Vector 2186 (Stroke)" fill-rule="evenodd" clip-rule="evenodd" d="M0 3.28571C0 1.47106 1.47106 0 3.28571 0H5.82197C6.80526 0 7.66236 0.669208 7.90085 1.62314L6.9307 1.86567L7.90085 1.62314L8.5706 4.30217C8.84218 5.38846 8.23162 6.5007 7.16936 6.85478L5.90235 7.27712C5.7195 7.33807 5.61065 7.52564 5.64845 7.71464C6.11643 10.0545 7.94545 11.8836 10.2854 12.3516C10.4744 12.3894 10.6619 12.2805 10.7229 12.0976L11.0632 11.0767C11.4756 9.83962 12.888 9.25455 14.0544 9.83773L16.8155 11.2183C17.5414 11.5813 18 12.3232 18 13.1349V14.7143C18 16.5289 16.5289 18 14.7143 18H12.4286C5.56446 18 0 12.4355 0 5.57143V3.28571ZM3.28571 2C2.57563 2 2 2.57563 2 3.28571V5.57143C2 11.331 6.66903 16 12.4286 16H14.7143C15.4244 16 16 15.4244 16 14.7143V13.1349C16 13.0808 15.9694 13.0313 15.921 13.0071L13.16 11.6266C13.0822 11.5877 12.988 11.6267 12.9606 11.7092L12.6202 12.7301C12.2403 13.8698 11.0712 14.5483 9.89313 14.3127C6.7615 13.6864 4.31361 11.2385 3.68729 8.10688C3.45167 6.92881 4.13016 5.75967 5.2699 5.37975L6.5369 4.95742C6.60772 4.93381 6.64842 4.85966 6.63032 4.78724L5.96056 2.10821L6.89725 1.87404L5.96056 2.10821C5.94466 2.04461 5.88752 2 5.82197 2H3.28571Z" fill="#7DB546"/>
</svg>
