<svg width="19" height="19" viewBox="0 0 19 19" fill="none" xmlns="http://www.w3.org/2000/svg">
<path id="Vector (Stroke)" fill-rule="evenodd" clip-rule="evenodd" d="M0 8.40161C0 3.76153 3.76153 0 8.40161 0C13.0417 0 16.8032 3.76153 16.8032 8.40161C16.8032 10.3743 16.1234 12.1881 14.9852 13.6217L19 17.6365L17.6365 19L13.6217 14.9852C12.1881 16.1234 10.3743 16.8032 8.40161 16.8032C3.76153 16.8032 0 13.0417 0 8.40161ZM8.40161 1.92824C4.82647 1.92824 1.92824 4.82647 1.92824 8.40161C1.92824 11.9768 4.82647 14.875 8.40161 14.875C11.9768 14.875 14.875 11.9768 14.875 8.40161C14.875 4.82647 11.9768 1.92824 8.40161 1.92824Z" fill="#7DB546"/>
</svg>
