<svg width="24" height="18" viewBox="-3.5 0 24 18" fill="none" xmlns="http://www.w3.org/2000/svg">
<g id="Vector">
<path fill-rule="evenodd" clip-rule="evenodd" d="M14.824 1.56653L3.82399 17.5665L2.1759 16.4335L13.1759 0.433472L14.824 1.56653Z" fill="#7DB546"/>
<path d="M10 14.5C10 16.433 11.567 18 13.5 18C15.433 18 17 16.433 17 14.5C17 12.567 15.433 11 13.5 11C11.567 11 10 12.567 10 14.5Z" fill="white"/>
<path d="M0 3.5C0 5.433 1.567 7 3.5 7C5.433 7 7 5.433 7 3.5C7 1.567 5.433 0 3.5 0C1.567 0 0 1.567 0 3.5Z" fill="white"/>
<path d="M13.5 17C12.1193 17 11 15.8807 11 14.5C11 13.1193 12.1193 12 13.5 12C14.8807 12 16 13.1193 16 14.5C16 15.8807 14.8807 17 13.5 17ZM3.5 6C2.11929 6 1 4.88071 1 3.5C1 2.11929 2.11929 1 3.5 1C4.88071 1 6 2.11929 6 3.5C6 4.88071 4.88071 6 3.5 6Z" stroke="#7DB546" stroke-width="2"/>
</g>
</svg>
