<svg width="44" height="40" viewBox="0 0 44 40" fill="none" xmlns="http://www.w3.org/2000/svg">
<path id="Vector" d="M22.449 33.3923C22.1665 33.2503 21.8335 33.2503 21.551 33.3923L10.1891 39.1022C9.45285 39.4722 8.6102 38.843 8.75574 38.032L10.9037 26.0633C10.9637 25.7288 10.8498 25.3867 10.6011 25.1551L1.53812 16.7108C0.921884 16.1367 1.24806 15.1045 2.08232 14.9887L14.688 13.2389C15.0098 13.1942 15.2899 12.9959 15.439 12.7072L21.1114 1.72094C21.484 0.999306 22.516 0.999304 22.8886 1.72094L28.561 12.7072C28.7101 12.9959 28.9902 13.1942 29.312 13.2389L41.9177 14.9887C42.7519 15.1045 43.0781 16.1367 42.4619 16.7108L33.3989 25.1551C33.1502 25.3867 33.0363 25.7288 33.0963 26.0633L35.2443 38.032C35.3898 38.843 34.5471 39.4722 33.811 39.1022L22.449 33.3923Z" fill="#EEEEEE" stroke="#960F19" stroke-linecap="round" stroke-linejoin="round"/>
</svg>
